<svg xmlns="http://www.w3.org/2000/svg" xmlns:xlink="http://www.w3.org/1999/xlink" width="1280" zoomAndPan="magnify" viewBox="0 0 960 959.999988" height="1280" preserveAspectRatio="xMidYMid meet" version="1.0"><defs><clipPath id="d324404bbb"><path d="M 66 190 L 899 190 L 899 745 L 66 745 Z M 66 190 " clip-rule="nonzero"/></clipPath><clipPath id="b3969f2345"><path d="M 218.21875 33.320312 L 933.113281 536.980469 L 601.371094 1007.855469 L -113.523438 504.195312 Z M 218.21875 33.320312 " clip-rule="nonzero"/></clipPath><clipPath id="22e1fa5643"><path d="M 218.21875 33.320312 L 933.113281 536.980469 L 601.371094 1007.855469 L -113.523438 504.195312 Z M 218.21875 33.320312 " clip-rule="nonzero"/></clipPath></defs><g clip-path="url(#d324404bbb)"><g clip-path="url(#b3969f2345)"><g clip-path="url(#22e1fa5643)"><path fill="#69bce7" d="M 736.691406 585.199219 C 784.300781 594.917969 833.019531 598.230469 881.605469 595.023438 C 891.027344 594.664062 898.417969 586.726562 898.058594 577.304688 C 898.007812 576.039062 897.863281 574.898438 897.613281 573.777344 C 882.769531 514.0625 834.585938 468.390625 774.222656 456.78125 L 546.429688 412.960938 C 545.277344 412.714844 544.222656 412.066406 543.496094 411.082031 L 412.15625 232.234375 C 390.058594 208.441406 360.125 193.496094 327.8125 190.113281 C 323.496094 189.53125 319.535156 192.601562 318.953125 196.917969 C 318.789062 198.222656 318.90625 199.53125 319.453125 200.769531 L 391.394531 375.492188 C 392.425781 377.921875 391.179688 380.632812 388.75 381.664062 C 387.863281 381.984375 386.9375 382.089844 386.066406 381.855469 L 193.964844 344.933594 C 188.800781 343.945312 184.414062 340.378906 182.394531 335.457031 L 131.152344 212.945312 C 126.90625 202.863281 115.320312 198.105469 105.242188 202.347656 C 98.980469 204.933594 94.523438 210.585938 93.40625 217.269531 L 67.148438 372.632812 C 64.707031 386.699219 70.386719 400.910156 81.746094 409.480469 C 139.503906 453.105469 206.515625 482.921875 277.609375 496.609375 L 411.074219 522.285156 C 413.609375 522.84375 415.261719 525.328125 414.765625 527.910156 C 414.53125 528.785156 414.121094 529.632812 413.460938 530.300781 L 216.992188 726.371094 C 213.867188 729.464844 213.84375 734.460938 216.984375 737.523438 C 217.859375 738.425781 218.980469 739.117188 220.210938 739.515625 C 247.851562 747.925781 277.5625 746.546875 304.285156 735.589844 L 604.035156 560.660156 C 605.039062 560.042969 606.222656 559.839844 607.3125 560.039062 L 736.691406 585.199219 " fill-opacity="1" fill-rule="nonzero"/></g></g></g></svg>